<?xml version="1.0" encoding="UTF-8" standalone="no"?>
<svg
   xmlns:dc="http://purl.org/dc/elements/1.1/"
   xmlns:cc="http://creativecommons.org/ns#"
   xmlns:rdf="http://www.w3.org/1999/02/22-rdf-syntax-ns#"
   xmlns:svg="http://www.w3.org/2000/svg"
   xmlns="http://www.w3.org/2000/svg"
   id="svg8"
   version="1.1"
   viewBox="0 0 52.916665 13.229167"
   height="50"
   width="200">
  <defs
     id="defs2" />
  <metadata
     id="metadata5">
    <rdf:RDF>
      <cc:Work
         rdf:about="">
        <dc:format>image/svg+xml</dc:format>
        <dc:type
           rdf:resource="http://purl.org/dc/dcmitype/StillImage" />
        <dc:title></dc:title>
      </cc:Work>
    </rdf:RDF>
  </metadata>
  <g
     transform="translate(0,-283.77082)"
     id="layer1">
    <g
       id="flowRoot815"
       style="font-style:normal;font-variant:normal;font-weight:normal;font-stretch:normal;font-size:18.66666603px;line-height:14px;font-family:'PT Sans Narrow';-inkscape-font-specification:'PT Sans Narrow';text-align:justify;letter-spacing:3.38000011px;word-spacing:0px;text-anchor:start;opacity:0.75;fill:#ffffff;fill-opacity:1;stroke:none;stroke-width:1px;stroke-linecap:butt;stroke-linejoin:miter;stroke-opacity:1"
       transform="matrix(0.26458333,0,0,0.26458333,-8.0443477,275.08448)"
       aria-label="DRAG WIDGETS HERE">
      <path
         id="path823"
         d="m 35.03451,51.296933 q 0.298667,-0.056 0.653334,-0.07467 0.373333,-0.03733 0.746666,-0.03733 0.373334,-0.01867 0.728,-0.01867 0.373334,-0.01867 0.690667,-0.01867 1.362667,0 2.314667,0.466667 0.952,0.466667 1.549333,1.344 0.597333,0.858666 0.858666,2.072 0.261334,1.213333 0.261334,2.706666 0,1.344 -0.261334,2.576 -0.242666,1.232 -0.84,2.165334 -0.597333,0.933333 -1.586666,1.493333 -0.970667,0.56 -2.445333,0.56 -0.242667,0 -0.616,-0.01867 -0.373334,0 -0.784,-0.03733 -0.392,-0.01867 -0.746667,-0.03733 -0.336,-0.01867 -0.522667,-0.056 z m 2.893334,1.138666 q -0.186667,0 -0.410667,0 -0.205333,0 -0.410667,0.01867 -0.205333,0.01867 -0.392,0.03733 -0.168,0.01867 -0.28,0.03733 v 10.639999 q 0.07467,0.01867 0.261334,0.03733 0.205333,0 0.410666,0.01867 0.224,0 0.410667,0.01867 0.205333,0 0.298667,0 1.026666,0 1.717333,-0.448 0.690667,-0.448 1.082667,-1.194667 0.410666,-0.765333 0.578666,-1.754666 0.168,-1.008 0.168,-2.128 0,-0.989334 -0.149333,-1.941334 -0.149333,-0.952 -0.541333,-1.68 -0.373334,-0.746666 -1.045334,-1.194666 -0.653333,-0.466667 -1.698666,-0.466667 z" />
      <path
         id="path825"
         d="m 48.214396,51.427599 q 0.616,-0.149333 1.344,-0.205333 0.746667,-0.07467 1.362667,-0.07467 0.728,0 1.381333,0.186667 0.653333,0.168 1.138667,0.597333 0.485333,0.410667 0.765333,1.101334 0.298667,0.671999 0.298667,1.698666 0,1.549333 -0.653334,2.482667 -0.634666,0.933333 -1.698666,1.250666 l 0.709333,0.690667 2.576,5.208 h -1.624 l -2.8,-5.693333 -1.4,-0.28 v 5.973333 h -1.4 z m 1.4,6.029333 h 1.12 q 1.064,0 1.68,-0.653333 0.616,-0.653333 0.616,-1.997333 0,-1.026667 -0.522667,-1.698667 -0.504,-0.672 -1.512,-0.672 -0.373333,0 -0.783999,0.03733 -0.392,0.01867 -0.597334,0.07467 z" />
      <path
         id="path827"
         d="m 65.146588,60.704932 h -3.696 l -1.045334,3.658667 h -1.381333 l 3.938667,-13.272 h 0.765333 l 3.938666,13.272 h -1.455999 z m -3.322667,-1.250666 h 2.986667 l -1.138667,-4.032 -0.354667,-1.96 h -0.03733 l -0.354667,1.997333 z" />
      <path
         id="path829"
         d="m 75.545071,57.848932 h 3.602667 v 5.749333 q -0.522667,0.485334 -1.344,0.746667 -0.821334,0.242667 -1.661334,0.242667 -1.045333,0 -1.904,-0.392 -0.84,-0.392 -1.437333,-1.213333 -0.597333,-0.84 -0.933333,-2.109334 -0.317333,-1.269333 -0.317333,-3.042666 0,-1.829334 0.392,-3.098667 0.391999,-1.288 1.045333,-2.090666 0.672,-0.821334 1.512,-1.194667 0.858666,-0.373333 1.754666,-0.373333 0.896,0 1.493334,0.130666 0.616,0.112 1.045333,0.317334 l -0.336,1.269333 q -0.373333,-0.205333 -0.896,-0.317333 -0.504,-0.112 -1.176,-0.112 -0.653333,0 -1.250667,0.28 -0.597333,0.28 -1.082666,0.933333 -0.466667,0.634666 -0.746667,1.68 -0.28,1.045333 -0.28,2.576 0,2.8 0.877333,4.144 0.896,1.325333 2.445334,1.325333 0.970666,0 1.605333,-0.466667 v -3.808 l -2.408,-0.354666 z" />
      <path
         id="path831"
         d="m 93.747912,59.939599 0.224,2.184 h 0.03733 l 0.224,-2.221333 2.090666,-8.605333 h 0.802667 l 2.090667,8.623999 0.224,2.202667 h 0.01867 l 0.261334,-2.221333 1.661334,-8.605333 h 1.4 l -2.912001,13.271999 h -0.858667 l -2.072,-8.605333 -0.261333,-1.997333 h -0.056 l -0.261333,2.016 -2.072,8.586666 h -0.877333 l -2.968,-13.271999 h 1.512 z" />
      <path
         id="path833"
         d="m 107.74919,51.296933 h 1.4 v 13.066666 h -1.4 z" />
      <path
         id="path835"
         d="m 115.19856,51.296933 q 0.29866,-0.056 0.65333,-0.07467 0.37333,-0.03733 0.74667,-0.03733 0.37333,-0.01867 0.728,-0.01867 0.37333,-0.01867 0.69066,-0.01867 1.36267,0 2.31467,0.466667 0.952,0.466667 1.54933,1.344 0.59734,0.858666 0.85867,2.072 0.26133,1.213333 0.26133,2.706666 0,1.344 -0.26133,2.576 -0.24267,1.232 -0.84,2.165334 -0.59733,0.933333 -1.58667,1.493333 -0.97066,0.56 -2.44533,0.56 -0.24267,0 -0.616,-0.01867 -0.37333,0 -0.784,-0.03733 -0.392,-0.01867 -0.74667,-0.03733 -0.336,-0.01867 -0.52266,-0.056 z m 2.89333,1.138666 q -0.18667,0 -0.41067,0 -0.20533,0 -0.41066,0.01867 -0.20534,0.01867 -0.392,0.03733 -0.168,0.01867 -0.28,0.03733 v 10.639999 q 0.0747,0.01867 0.26133,0.03733 0.20533,0 0.41067,0.01867 0.224,0 0.41066,0.01867 0.20534,0 0.29867,0 1.02667,0 1.71733,-0.448 0.69067,-0.448 1.08267,-1.194667 0.41067,-0.765333 0.57867,-1.754666 0.168,-1.008 0.168,-2.128 0,-0.989334 -0.14934,-1.941334 -0.14933,-0.952 -0.54133,-1.68 -0.37333,-0.746666 -1.04533,-1.194666 -0.65334,-0.466667 -1.69867,-0.466667 z" />
      <path
         id="path837"
         d="m 131.98111,57.848932 h 3.60267 v 5.749333 q -0.52267,0.485334 -1.344,0.746667 -0.82134,0.242667 -1.66134,0.242667 -1.04533,0 -1.904,-0.392 -0.84,-0.392 -1.43733,-1.213333 -0.59733,-0.84 -0.93333,-2.109334 -0.31734,-1.269333 -0.31734,-3.042666 0,-1.829334 0.392,-3.098667 0.392,-1.288 1.04534,-2.090666 0.672,-0.821334 1.512,-1.194667 0.85866,-0.373333 1.75466,-0.373333 0.896,0 1.49334,0.130666 0.616,0.112 1.04533,0.317334 l -0.336,1.269333 q -0.37333,-0.205333 -0.896,-0.317333 -0.504,-0.112 -1.176,-0.112 -0.65333,0 -1.25067,0.28 -0.59733,0.28 -1.08266,0.933333 -0.46667,0.634666 -0.74667,1.68 -0.28,1.045333 -0.28,2.576 0,2.8 0.87733,4.144 0.896,1.325333 2.44534,1.325333 0.97066,0 1.60533,-0.466667 v -3.808 l -2.408,-0.354666 z" />
      <path
         id="path839"
         d="m 140.94252,51.296933 h 5.80534 v 1.288 h -4.40534 v 4.423999 h 4.05067 v 1.288 h -4.05067 v 4.778667 h 4.49867 v 1.288 h -5.89867 z" />
      <path
         id="path841"
         d="m 159.21826,52.584933 h -3.21067 v 11.778666 h -1.4 V 52.584933 h -3.21067 v -1.288 h 7.82134 z" />
      <path
         id="path843"
         d="m 163.96075,62.627599 q 0.35467,0.242667 0.98934,0.466667 0.65333,0.205333 1.47466,0.205333 1.04534,0 1.69867,-0.504 0.65333,-0.522667 0.65333,-1.624 0,-0.728 -0.37333,-1.269333 -0.37333,-0.541334 -0.93333,-0.989334 -0.56,-0.466666 -1.21334,-0.896 -0.63466,-0.448 -1.19466,-0.970666 -0.56,-0.541334 -0.93334,-1.232 -0.37333,-0.690667 -0.37333,-1.661334 0,-1.567999 0.93333,-2.314666 0.952,-0.765333 2.464,-0.765333 0.93334,0 1.66134,0.168 0.728,0.168 1.176,0.429333 l -0.448,1.232 q -0.336,-0.205333 -0.97067,-0.373333 -0.616,-0.168 -1.43733,-0.168 -1.008,0 -1.49334,0.504 -0.48533,0.485333 -0.48533,1.231999 0,0.653334 0.37333,1.157334 0.37334,0.504 0.93334,0.952 0.56,0.448 1.19466,0.914666 0.65334,0.448 1.21334,1.008 0.56,0.56 0.93333,1.269334 0.37333,0.709333 0.37333,1.68 0,1.642666 -0.97066,2.575999 -0.97067,0.933334 -2.744,0.933334 -1.12,0 -1.848,-0.205334 -0.70934,-0.205333 -1.13867,-0.466666 z" />
      <path
         id="path845"
         d="m 188.97703,58.334266 h -4.816 v 6.029333 h -1.4 V 51.296933 h 1.4 v 5.749333 h 4.816 v -5.749333 h 1.4 v 13.066666 h -1.4 z" />
      <path
         id="path847"
         d="m 196.14656,51.296933 h 5.80533 v 1.288 h -4.40533 v 4.423999 h 4.05066 v 1.288 h -4.05066 v 4.778667 h 4.49866 v 1.288 h -5.89866 z" />
      <path
         id="path849"
         d="m 207.53428,51.427599 q 0.616,-0.149333 1.344,-0.205333 0.74667,-0.07467 1.36267,-0.07467 0.728,0 1.38133,0.186667 0.65333,0.168 1.13867,0.597333 0.48533,0.410667 0.76533,1.101334 0.29867,0.671999 0.29867,1.698666 0,1.549333 -0.65334,2.482667 -0.63466,0.933333 -1.69866,1.250666 l 0.70933,0.690667 2.576,5.208 h -1.624 l -2.8,-5.693333 -1.4,-0.28 v 5.973333 h -1.4 z m 1.4,6.029333 h 1.12 q 1.064,0 1.68,-0.653333 0.616,-0.653333 0.616,-1.997333 0,-1.026667 -0.52267,-1.698667 -0.504,-0.672 -1.512,-0.672 -0.37333,0 -0.784,0.03733 -0.392,0.01867 -0.59733,0.07467 z" />
      <path
         id="path851"
         d="m 219.87449,51.296933 h 5.80533 v 1.288 h -4.40533 v 4.423999 h 4.05067 v 1.288 h -4.05067 v 4.778667 h 4.49867 v 1.288 h -5.89867 z" />
    </g>
  </g>
</svg>
