<?xml version="1.0" encoding="UTF-8" standalone="no"?>
<svg
   xmlns:dc="http://purl.org/dc/elements/1.1/"
   xmlns:cc="http://creativecommons.org/ns#"
   xmlns:rdf="http://www.w3.org/1999/02/22-rdf-syntax-ns#"
   xmlns:svg="http://www.w3.org/2000/svg"
   xmlns="http://www.w3.org/2000/svg"
   id="svg8"
   version="1.1"
   viewBox="0 0 92.604164 26.458334"
   height="100"
   width="350">
  <defs
     id="defs2" />
  <metadata
     id="metadata5">
    <rdf:RDF>
      <cc:Work
         rdf:about="">
        <dc:format>image/svg+xml</dc:format>
        <dc:type
           rdf:resource="http://purl.org/dc/dcmitype/StillImage" />
        <dc:title></dc:title>
      </cc:Work>
    </rdf:RDF>
  </metadata>
  <g
     transform="translate(0,-270.54165)"
     id="layer1">
    <g
       id="text817"
       style="font-style:normal;font-variant:normal;font-weight:normal;font-stretch:normal;font-size:4.93888855px;line-height:5.5562501px;font-family:Oswald;-inkscape-font-specification:Oswald;text-align:center;letter-spacing:0.8942917px;word-spacing:0px;text-anchor:middle;fill:#000000;fill-opacity:1;stroke:none;stroke-width:0.26458332px;stroke-linecap:butt;stroke-linejoin:miter;stroke-opacity:1;opacity:0.75"
       aria-label="DRAG STRUCTURE WIDGETS HERE

THEN DRAG FEATURE WIDGETS 
INTO STRUCTURES">
      <path
         id="path825"
         style="line-height:5.5562501px;text-align:center;text-anchor:middle;stroke-width:0.26458332px"
         d="m 4.5537587,273.43126 h 0.8692444 q 0.6469944,0 0.9136943,0.29634 0.2716389,0.29633 0.2716389,0.92357 v 1.47179 q 0,0.66181 -0.2667,0.98777 -0.2617611,0.32103 -0.8741832,0.32103 H 4.5537587 Z m 0.8741832,3.60045 q 0.2913945,0 0.4198056,-0.11359 0.13335,-0.1136 0.1629833,-0.30621 0.034572,-0.19756 0.034572,-0.59267 v -1.29893 q 0,-0.34078 -0.04445,-0.51858 -0.039511,-0.18274 -0.1728611,-0.2667 -0.13335,-0.0889 -0.4148666,-0.0889 H 5.1118531 v 3.18558 z" />
      <path
         id="path827"
         style="line-height:5.5562501px;text-align:center;text-anchor:middle;stroke-width:0.26458332px"
         d="m 8.0508843,273.43126 h 0.8050388 q 0.6074833,0 0.889,0.25189 0.2864559,0.24694 0.2864559,0.80997 0,0.77047 -0.4938893,0.93345 l 0.5679723,2.00519 H 9.5671231 L 9.0436009,275.55499 H 8.6089787 v 1.87677 H 8.0508843 Z m 0.7704666,1.72368 q 0.3605389,0 0.5136444,-0.14323 0.1580445,-0.14323 0.1580445,-0.51859 0,-0.24694 -0.054328,-0.38523 -0.054328,-0.14323 -0.1926167,-0.20743 -0.1382889,-0.0692 -0.3901722,-0.0692 H 8.6089787 v 1.32363 z" />
      <path
         id="path829"
         style="line-height:5.5562501px;text-align:center;text-anchor:middle;stroke-width:0.26458332px"
         d="m 12.140698,273.43126 h 0.538339 l 0.854428,4.0005 h -0.528461 l -0.182739,-1.00753 h -0.814917 l -0.192616,1.00753 H 11.29121 Z m 0.607484,2.59292 -0.335845,-1.80269 -0.330905,1.80269 z" />
      <path
         id="path831"
         style="line-height:5.5562501px;text-align:center;text-anchor:middle;stroke-width:0.26458332px"
         d="m 15.771155,277.48115 q -0.543278,0 -0.785283,-0.34078 -0.242006,-0.34572 -0.242006,-1.02235 v -1.33844 q 0,-0.46426 0.09384,-0.76059 0.09878,-0.30127 0.330905,-0.45932 0.237067,-0.16298 0.646995,-0.16298 0.553155,0 0.795161,0.28152 0.246944,0.28151 0.246944,0.88406 v 0.14817 h -0.523522 v -0.12348 q 0,-0.28645 -0.03457,-0.43956 -0.03457,-0.15804 -0.148167,-0.23706 -0.108655,-0.079 -0.325966,-0.079 -0.232128,0 -0.345723,0.10866 -0.113594,0.10372 -0.148166,0.28152 -0.02963,0.1778 -0.02963,0.47413 v 1.48167 q 0,0.45931 0.108656,0.66181 0.113594,0.19755 0.429683,0.19755 0.31115,0 0.424745,-0.21731 0.118533,-0.21731 0.118533,-0.69638 v -0.27658 h -0.508706 v -0.39511 h 1.012473 v 1.98049 h -0.350661 l -0.05433,-0.45931 q -0.187678,0.5087 -0.7112,0.5087 z" />
      <path
         id="path833"
         style="line-height:5.5562501px;text-align:center;text-anchor:middle;stroke-width:0.26458332px"
         d="m 21.323209,277.47621 q -0.503767,0 -0.770467,-0.31115 -0.261761,-0.31115 -0.291394,-0.85443 l 0.493888,-0.13334 q 0.0247,0.38523 0.148167,0.62229 0.128411,0.23707 0.419806,0.23707 0.217311,0 0.325966,-0.11853 0.113595,-0.12347 0.113595,-0.35066 0,-0.24201 -0.103717,-0.40005 -0.103717,-0.16299 -0.330905,-0.37042 l -0.671689,-0.59267 q -0.202495,-0.18273 -0.296334,-0.38523 -0.0889,-0.20743 -0.0889,-0.49883 0,-0.4445 0.256823,-0.68156 0.256822,-0.24201 0.706261,-0.24201 0.469194,0 0.701322,0.25188 0.232128,0.25189 0.281516,0.78035 l -0.474133,0.12841 q -0.02469,-0.34078 -0.128411,-0.5334 -0.103717,-0.19756 -0.365478,-0.19756 -0.479072,0 -0.479072,0.43957 0,0.1778 0.05927,0.29633 0.05927,0.11359 0.202494,0.24694 l 0.676628,0.59267 q 0.261761,0.24201 0.414867,0.51364 0.158044,0.2667 0.158044,0.60749 0,0.43956 -0.2667,0.69638 -0.2667,0.25682 -0.691444,0.25682 z" />
      <path
         id="path835"
         style="line-height:5.5562501px;text-align:center;text-anchor:middle;stroke-width:0.26458332px"
         d="m 24.020155,273.84613 h -0.726016 v -0.41487 h 1.990372 v 0.41487 H 24.57825 v 3.58563 h -0.558095 z" />
      <path
         id="path837"
         style="line-height:5.5562501px;text-align:center;text-anchor:middle;stroke-width:0.26458332px"
         d="m 26.480043,273.43126 h 0.805039 q 0.607484,0 0.889,0.25189 0.286456,0.24694 0.286456,0.80997 0,0.77047 -0.493889,0.93345 l 0.567972,2.00519 h -0.538339 l -0.523522,-1.87677 h -0.434622 v 1.87677 h -0.558095 z m 0.770467,1.72368 q 0.360539,0 0.513644,-0.14323 0.158045,-0.14323 0.158045,-0.51859 0,-0.24694 -0.05433,-0.38523 -0.05433,-0.14323 -0.192617,-0.20743 -0.138288,-0.0692 -0.390172,-0.0692 h -0.246944 v 1.32363 z" />
      <path
         id="path839"
         style="line-height:5.5562501px;text-align:center;text-anchor:middle;stroke-width:0.26458332px"
         d="m 30.969909,277.47621 q -0.419806,0 -0.656872,-0.16792 -0.232128,-0.16792 -0.321028,-0.46919 -0.0889,-0.30128 -0.0889,-0.75565 v -2.65219 h 0.5334 v 2.67688 q 0,0.45438 0.103717,0.69144 0.108655,0.23707 0.429683,0.23707 0.321028,0 0.424744,-0.23707 0.108656,-0.23706 0.108656,-0.69144 v -2.67688 h 0.528461 v 2.65219 q 0,0.45437 -0.0889,0.75565 -0.0889,0.30127 -0.321028,0.46919 -0.232128,0.16792 -0.651933,0.16792 z" />
      <path
         id="path841"
         style="line-height:5.5562501px;text-align:center;text-anchor:middle;stroke-width:0.26458332px"
         d="m 34.516379,277.47621 q -0.592667,0 -0.834672,-0.35066 -0.242006,-0.3556 -0.242006,-0.9779 v -1.41252 q 0,-0.65687 0.237067,-0.99766 0.237066,-0.34078 0.839611,-0.34078 0.538339,0 0.770466,0.2914 0.237067,0.29139 0.237067,0.85936 v 0.31609 h -0.528461 v -0.28152 q 0,-0.27657 -0.02469,-0.42474 -0.0247,-0.14817 -0.128412,-0.23707 -0.09878,-0.0889 -0.321027,-0.0889 -0.227189,0 -0.340784,0.0988 -0.108655,0.0938 -0.143227,0.2667 -0.03457,0.16792 -0.03457,0.45438 v 1.58538 q 0,0.30621 0.04939,0.47907 0.04939,0.17286 0.158045,0.24695 0.113594,0.0741 0.31115,0.0741 0.212372,0 0.316089,-0.0938 0.103716,-0.0938 0.128411,-0.25682 0.02963,-0.16298 0.02963,-0.4445 v -0.29633 h 0.528461 v 0.29633 q 0,0.59761 -0.227189,0.91863 -0.22225,0.31609 -0.780344,0.31609 z" />
      <path
         id="path843"
         style="line-height:5.5562501px;text-align:center;text-anchor:middle;stroke-width:0.26458332px"
         d="m 37.361605,273.84613 h -0.726016 v -0.41487 h 1.990372 v 0.41487 H 37.9197 v 3.58563 h -0.558095 z" />
      <path
         id="path845"
         style="line-height:5.5562501px;text-align:center;text-anchor:middle;stroke-width:0.26458332px"
         d="m 40.853721,277.47621 q -0.419806,0 -0.656872,-0.16792 -0.232128,-0.16792 -0.321028,-0.46919 -0.0889,-0.30128 -0.0889,-0.75565 v -2.65219 h 0.5334 v 2.67688 q 0,0.45438 0.103717,0.69144 0.108655,0.23707 0.429683,0.23707 0.321028,0 0.424744,-0.23707 0.108656,-0.23706 0.108656,-0.69144 v -2.67688 h 0.528461 v 2.65219 q 0,0.45437 -0.0889,0.75565 -0.0889,0.30127 -0.321028,0.46919 -0.232128,0.16792 -0.651933,0.16792 z" />
      <path
         id="path847"
         style="line-height:5.5562501px;text-align:center;text-anchor:middle;stroke-width:0.26458332px"
         d="m 43.397596,273.43126 h 0.805039 q 0.607484,0 0.889,0.25189 0.286456,0.24694 0.286456,0.80997 0,0.77047 -0.493889,0.93345 l 0.567972,2.00519 h -0.538339 l -0.523522,-1.87677 h -0.434622 v 1.87677 h -0.558095 z m 0.770467,1.72368 q 0.360539,0 0.513644,-0.14323 0.158045,-0.14323 0.158045,-0.51859 0,-0.24694 -0.05433,-0.38523 -0.05433,-0.14323 -0.192617,-0.20743 -0.138288,-0.0692 -0.390172,-0.0692 h -0.246944 v 1.32363 z" />
      <path
         id="path849"
         style="line-height:5.5562501px;text-align:center;text-anchor:middle;stroke-width:0.26458332px"
         d="m 46.855234,273.43126 h 1.550811 v 0.41487 h -0.992716 v 1.32362 h 0.805038 v 0.39511 h -0.805038 v 1.46685 h 1.002594 v 0.40005 h -1.560689 z" />
      <path
         id="path851"
         style="line-height:5.5562501px;text-align:center;text-anchor:middle;stroke-width:0.26458332px"
         d="m 51.651682,273.43126 h 0.464256 l 0.429683,2.87444 0.538339,-2.85962 h 0.395111 l 0.543278,2.87443 0.419805,-2.88925 h 0.454378 l -0.642055,4.0005 h -0.404989 l -0.558095,-2.96333 -0.563033,2.96333 h -0.424744 z" />
      <path
         id="path853"
         style="line-height:5.5562501px;text-align:center;text-anchor:middle;stroke-width:0.26458332px"
         d="m 56.309428,273.43126 h 0.548217 v 4.0005 h -0.548217 z" />
      <path
         id="path855"
         style="line-height:5.5562501px;text-align:center;text-anchor:middle;stroke-width:0.26458332px"
         d="m 58.398859,273.43126 h 0.869244 q 0.646995,0 0.913695,0.29634 0.271639,0.29633 0.271639,0.92357 v 1.47179 q 0,0.66181 -0.2667,0.98777 -0.261761,0.32103 -0.874184,0.32103 h -0.913694 z m 0.874183,3.60045 q 0.291395,0 0.419806,-0.11359 0.13335,-0.1136 0.162983,-0.30621 0.03457,-0.19756 0.03457,-0.59267 v -1.29893 q 0,-0.34078 -0.04445,-0.51858 -0.03951,-0.18274 -0.172861,-0.2667 -0.13335,-0.0889 -0.414866,-0.0889 h -0.301273 v 3.18558 z" />
      <path
         id="path857"
         style="line-height:5.5562501px;text-align:center;text-anchor:middle;stroke-width:0.26458332px"
         d="m 62.849192,277.48115 q -0.543278,0 -0.785283,-0.34078 -0.242006,-0.34572 -0.242006,-1.02235 v -1.33844 q 0,-0.46426 0.09384,-0.76059 0.09878,-0.30127 0.330906,-0.45932 0.237066,-0.16298 0.646994,-0.16298 0.553156,0 0.795161,0.28152 0.246945,0.28151 0.246945,0.88406 v 0.14817 h -0.523523 v -0.12348 q 0,-0.28645 -0.03457,-0.43956 -0.03457,-0.15804 -0.148166,-0.23706 -0.108656,-0.079 -0.325967,-0.079 -0.232128,0 -0.345722,0.10866 -0.113595,0.10372 -0.148167,0.28152 -0.02963,0.1778 -0.02963,0.47413 v 1.48167 q 0,0.45931 0.108655,0.66181 0.113595,0.19755 0.429684,0.19755 0.31115,0 0.424744,-0.21731 0.118533,-0.21731 0.118533,-0.69638 v -0.27658 h -0.508705 v -0.39511 h 1.012472 v 1.98049 H 63.61472 l -0.05433,-0.45931 q -0.187678,0.5087 -0.7112,0.5087 z" />
      <path
         id="path859"
         style="line-height:5.5562501px;text-align:center;text-anchor:middle;stroke-width:0.26458332px"
         d="m 65.4326,273.43126 h 1.550811 v 0.41487 h -0.992717 v 1.32362 h 0.805039 v 0.39511 h -0.805039 v 1.46685 h 1.002595 v 0.40005 H 65.4326 Z" />
      <path
         id="path861"
         style="line-height:5.5562501px;text-align:center;text-anchor:middle;stroke-width:0.26458332px"
         d="m 68.747012,273.84613 h -0.726017 v -0.41487 h 1.990372 v 0.41487 h -0.706261 v 3.58563 h -0.558094 z" />
      <path
         id="path863"
         style="line-height:5.5562501px;text-align:center;text-anchor:middle;stroke-width:0.26458332px"
         d="m 72.150231,277.47621 q -0.503766,0 -0.770466,-0.31115 -0.261761,-0.31115 -0.291395,-0.85443 l 0.493889,-0.13334 q 0.02469,0.38523 0.148167,0.62229 0.128411,0.23707 0.419805,0.23707 0.217311,0 0.325967,-0.11853 0.113594,-0.12347 0.113594,-0.35066 0,-0.24201 -0.103716,-0.40005 -0.103717,-0.16299 -0.330906,-0.37042 l -0.671689,-0.59267 q -0.202494,-0.18273 -0.296333,-0.38523 -0.0889,-0.20743 -0.0889,-0.49883 0,-0.4445 0.256822,-0.68156 0.256822,-0.24201 0.706261,-0.24201 0.469195,0 0.701322,0.25188 0.232128,0.25189 0.281517,0.78035 l -0.474133,0.12841 q -0.02469,-0.34078 -0.128411,-0.5334 -0.103717,-0.19756 -0.365478,-0.19756 -0.479072,0 -0.479072,0.43957 0,0.1778 0.05927,0.29633 0.05927,0.11359 0.202495,0.24694 l 0.676628,0.59267 q 0.261761,0.24201 0.414866,0.51364 0.158045,0.2667 0.158045,0.60749 0,0.43956 -0.2667,0.69638 -0.2667,0.25682 -0.691445,0.25682 z" />
      <path
         id="path865"
         style="line-height:5.5562501px;text-align:center;text-anchor:middle;stroke-width:0.26458332px"
         d="m 76.462565,273.43126 h 0.558094 v 1.72861 h 1.027289 v -1.72861 h 0.558094 v 4.0005 h -0.558094 v -1.87184 h -1.027289 v 1.87184 h -0.558094 z" />
      <path
         id="path867"
         style="line-height:5.5562501px;text-align:center;text-anchor:middle;stroke-width:0.26458332px"
         d="m 80.127596,273.43126 h 1.550811 v 0.41487 H 80.68569 v 1.32362 h 0.805039 v 0.39511 H 80.68569 v 1.46685 h 1.002595 v 0.40005 h -1.560689 z" />
      <path
         id="path869"
         style="line-height:5.5562501px;text-align:center;text-anchor:middle;stroke-width:0.26458332px"
         d="m 83.032076,273.43126 h 0.805039 q 0.607483,0 0.889,0.25189 0.286455,0.24694 0.286455,0.80997 0,0.77047 -0.493889,0.93345 l 0.567973,2.00519 h -0.538339 l -0.523522,-1.87677 H 83.59017 v 1.87677 h -0.558094 z m 0.770467,1.72368 q 0.360538,0 0.513644,-0.14323 0.158044,-0.14323 0.158044,-0.51859 0,-0.24694 -0.05433,-0.38523 -0.05433,-0.14323 -0.192617,-0.20743 -0.138289,-0.0692 -0.390172,-0.0692 H 83.59017 v 1.32363 z" />
      <path
         id="path871"
         style="line-height:5.5562501px;text-align:center;text-anchor:middle;stroke-width:0.26458332px"
         d="m 86.489718,273.43126 h 1.550811 v 0.41487 h -0.992717 v 1.32362 h 0.805039 v 0.39511 h -0.805039 v 1.46685 h 1.002594 v 0.40005 h -1.560688 z" />
      <path
         id="path873"
         style="line-height:5.5562501px;text-align:center;text-anchor:middle;stroke-width:0.26458332px"
         d="M 8.7966699,284.95863 H 8.0706533 v -0.41487 h 1.9903717 v 0.41487 H 9.3547643 v 3.58563 H 8.7966699 Z" />
      <path
         id="path875"
         style="line-height:5.5562501px;text-align:center;text-anchor:middle;stroke-width:0.26458332px"
         d="m 11.256559,284.54376 h 0.558095 v 1.72861 h 1.027288 v -1.72861 h 0.558095 v 4.0005 h -0.558095 v -1.87184 h -1.027288 v 1.87184 h -0.558095 z" />
      <path
         id="path877"
         style="line-height:5.5562501px;text-align:center;text-anchor:middle;stroke-width:0.26458332px"
         d="m 14.92159,284.54376 h 1.550811 v 0.41487 h -0.992716 v 1.32362 h 0.805039 v 0.39511 h -0.805039 v 1.46685 h 1.002594 v 0.40005 H 14.92159 Z" />
      <path
         id="path879"
         style="line-height:5.5562501px;text-align:center;text-anchor:middle;stroke-width:0.26458332px"
         d="m 17.826073,284.54376 h 0.380295 l 1.135944,2.65713 v -2.65713 h 0.464256 v 4.0005 h -0.3556 l -1.150761,-2.7312 v 2.7312 h -0.474134 z" />
      <path
         id="path881"
         style="line-height:5.5562501px;text-align:center;text-anchor:middle;stroke-width:0.26458332px"
         d="m 23.353489,284.54376 h 0.869245 q 0.646994,0 0.913694,0.29634 0.271639,0.29633 0.271639,0.92357 v 1.47179 q 0,0.66181 -0.2667,0.98778 -0.261761,0.32102 -0.874183,0.32102 h -0.913695 z m 0.874184,3.60045 q 0.291394,0 0.419805,-0.11359 0.13335,-0.1136 0.162984,-0.30621 0.03457,-0.19756 0.03457,-0.59267 v -1.29893 q 0,-0.34078 -0.04445,-0.51858 -0.03951,-0.18274 -0.172861,-0.2667 -0.13335,-0.0889 -0.414867,-0.0889 h -0.301272 v 3.18558 z" />
      <path
         id="path883"
         style="line-height:5.5562501px;text-align:center;text-anchor:middle;stroke-width:0.26458332px"
         d="m 26.850615,284.54376 h 0.805039 q 0.607483,0 0.889,0.25189 0.286455,0.24694 0.286455,0.80997 0,0.77047 -0.493888,0.93345 l 0.567972,2.00519 h -0.538339 l -0.523522,-1.87677 H 27.40871 v 1.87677 h -0.558095 z m 0.770467,1.72368 q 0.360539,0 0.513644,-0.14323 0.158045,-0.14323 0.158045,-0.51859 0,-0.24694 -0.05433,-0.38523 -0.05433,-0.14323 -0.192617,-0.20743 -0.138289,-0.0692 -0.390172,-0.0692 H 27.40871 v 1.32363 z" />
      <path
         id="path885"
         style="line-height:5.5562501px;text-align:center;text-anchor:middle;stroke-width:0.26458332px"
         d="m 30.940429,284.54376 h 0.538339 l 0.854427,4.0005 h -0.528461 l -0.182739,-1.00753 h -0.814916 l -0.192617,1.00753 H 30.09094 Z m 0.607483,2.59292 -0.335844,-1.80269 -0.330906,1.80269 z" />
      <path
         id="path887"
         style="line-height:5.5562501px;text-align:center;text-anchor:middle;stroke-width:0.26458332px"
         d="m 34.570886,288.59365 q -0.543278,0 -0.785284,-0.34078 -0.242005,-0.34572 -0.242005,-1.02235 v -1.33844 q 0,-0.46426 0.09384,-0.76059 0.09878,-0.30127 0.330905,-0.45932 0.237067,-0.16298 0.646995,-0.16298 0.553155,0 0.795161,0.28152 0.246944,0.28151 0.246944,0.88406 v 0.14817 h -0.523522 v -0.12348 q 0,-0.28645 -0.03457,-0.43956 -0.03457,-0.15804 -0.148167,-0.23706 -0.108655,-0.079 -0.325967,-0.079 -0.232127,0 -0.345722,0.10866 -0.113594,0.10372 -0.148166,0.28152 -0.02963,0.1778 -0.02963,0.47413 v 1.48167 q 0,0.45931 0.108656,0.66181 0.113594,0.19755 0.429683,0.19755 0.31115,0 0.424744,-0.21731 0.118534,-0.21731 0.118534,-0.69638 v -0.27658 h -0.508706 v -0.39511 h 1.012472 v 1.98049 h -0.350661 l -0.05433,-0.45931 q -0.187678,0.5087 -0.7112,0.5087 z" />
      <path
         id="path889"
         style="line-height:5.5562501px;text-align:center;text-anchor:middle;stroke-width:0.26458332px"
         d="m 39.179612,284.54376 h 1.545872 v 0.40005 h -0.987778 v 1.3335 h 0.765528 v 0.39511 h -0.765528 v 1.87184 h -0.558094 z" />
      <path
         id="path891"
         style="line-height:5.5562501px;text-align:center;text-anchor:middle;stroke-width:0.26458332px"
         d="m 42.004963,284.54376 h 1.550811 v 0.41487 h -0.992716 v 1.32362 h 0.805039 v 0.39511 h -0.805039 v 1.46685 h 1.002594 v 0.40005 h -1.560689 z" />
      <path
         id="path893"
         style="line-height:5.5562501px;text-align:center;text-anchor:middle;stroke-width:0.26458332px"
         d="m 45.541625,284.54376 h 0.538339 l 0.854428,4.0005 H 46.40593 l -0.182738,-1.00753 h -0.814917 l -0.192617,1.00753 h -0.523522 z m 0.607483,2.59292 -0.335844,-1.80269 -0.330906,1.80269 z" />
      <path
         id="path895"
         style="line-height:5.5562501px;text-align:center;text-anchor:middle;stroke-width:0.26458332px"
         d="m 48.48557,284.95863 h -0.726017 v -0.41487 h 1.990372 v 0.41487 h -0.706261 v 3.58563 H 48.48557 Z" />
      <path
         id="path897"
         style="line-height:5.5562501px;text-align:center;text-anchor:middle;stroke-width:0.26458332px"
         d="m 51.97769,288.58871 q -0.419806,0 -0.656873,-0.16792 -0.232127,-0.16792 -0.321027,-0.46919 -0.0889,-0.30128 -0.0889,-0.75565 v -2.65219 h 0.5334 v 2.67688 q 0,0.45438 0.103716,0.69145 0.108656,0.23706 0.429684,0.23706 0.321027,0 0.424744,-0.23706 0.108655,-0.23707 0.108655,-0.69145 v -2.67688 h 0.528462 v 2.65219 q 0,0.45437 -0.0889,0.75565 -0.0889,0.30127 -0.321028,0.46919 -0.232128,0.16792 -0.651933,0.16792 z" />
      <path
         id="path899"
         style="line-height:5.5562501px;text-align:center;text-anchor:middle;stroke-width:0.26458332px"
         d="m 54.521565,284.54376 h 0.805039 q 0.607483,0 0.889,0.25189 0.286455,0.24694 0.286455,0.80997 0,0.77047 -0.493889,0.93345 l 0.567973,2.00519 h -0.538339 l -0.523522,-1.87677 h -0.434623 v 1.87677 h -0.558094 z m 0.770467,1.72368 q 0.360539,0 0.513644,-0.14323 0.158044,-0.14323 0.158044,-0.51859 0,-0.24694 -0.05433,-0.38523 -0.05433,-0.14323 -0.192617,-0.20743 -0.138289,-0.0692 -0.390172,-0.0692 h -0.246945 v 1.32363 z" />
      <path
         id="path901"
         style="line-height:5.5562501px;text-align:center;text-anchor:middle;stroke-width:0.26458332px"
         d="m 57.979203,284.54376 h 1.550811 v 0.41487 h -0.992717 v 1.32362 h 0.805039 v 0.39511 h -0.805039 v 1.46685 h 1.002595 v 0.40005 h -1.560689 z" />
      <path
         id="path903"
         style="line-height:5.5562501px;text-align:center;text-anchor:middle;stroke-width:0.26458332px"
         d="m 62.775651,284.54376 h 0.464255 l 0.429684,2.87444 0.538339,-2.85962 h 0.395111 l 0.543277,2.87443 0.419806,-2.88925 h 0.454378 l -0.642056,4.0005 h -0.404989 l -0.558094,-2.96333 -0.563033,2.96333 h -0.424745 z" />
      <path
         id="path905"
         style="line-height:5.5562501px;text-align:center;text-anchor:middle;stroke-width:0.26458332px"
         d="m 67.433393,284.54376 h 0.548217 v 4.0005 h -0.548217 z" />
      <path
         id="path907"
         style="line-height:5.5562501px;text-align:center;text-anchor:middle;stroke-width:0.26458332px"
         d="m 69.522828,284.54376 h 0.869244 q 0.646994,0 0.913694,0.29634 0.271639,0.29633 0.271639,0.92357 v 1.47179 q 0,0.66181 -0.2667,0.98778 -0.261761,0.32102 -0.874183,0.32102 h -0.913694 z m 0.874183,3.60045 q 0.291394,0 0.419805,-0.11359 0.13335,-0.1136 0.162984,-0.30621 0.03457,-0.19756 0.03457,-0.59267 v -1.29893 q 0,-0.34078 -0.04445,-0.51858 -0.03951,-0.18274 -0.172861,-0.2667 -0.13335,-0.0889 -0.414867,-0.0889 h -0.301272 v 3.18558 z" />
      <path
         id="path909"
         style="line-height:5.5562501px;text-align:center;text-anchor:middle;stroke-width:0.26458332px"
         d="m 73.973157,288.59365 q -0.543278,0 -0.785283,-0.34078 -0.242006,-0.34572 -0.242006,-1.02235 v -1.33844 q 0,-0.46426 0.09384,-0.76059 0.09878,-0.30127 0.330906,-0.45932 0.237066,-0.16298 0.646994,-0.16298 0.553155,0 0.795161,0.28152 0.246944,0.28151 0.246944,0.88406 v 0.14817 H 74.53619 v -0.12348 q 0,-0.28645 -0.03457,-0.43956 -0.03457,-0.15804 -0.148167,-0.23706 -0.108655,-0.079 -0.325966,-0.079 -0.232128,0 -0.345723,0.10866 -0.113594,0.10372 -0.148166,0.28152 -0.02963,0.1778 -0.02963,0.47413 v 1.48167 q 0,0.45931 0.108656,0.66181 0.113594,0.19755 0.429683,0.19755 0.31115,0 0.424745,-0.21731 0.118533,-0.21731 0.118533,-0.69638 v -0.27658 h -0.508705 v -0.39511 h 1.012472 v 1.98049 h -0.350661 l -0.05433,-0.45931 q -0.187678,0.5087 -0.7112,0.5087 z" />
      <path
         id="path911"
         style="line-height:5.5562501px;text-align:center;text-anchor:middle;stroke-width:0.26458332px"
         d="m 76.556565,284.54376 h 1.550811 v 0.41487 h -0.992717 v 1.32362 h 0.805039 v 0.39511 h -0.805039 v 1.46685 h 1.002595 v 0.40005 h -1.560689 z" />
      <path
         id="path913"
         style="line-height:5.5562501px;text-align:center;text-anchor:middle;stroke-width:0.26458332px"
         d="m 79.87098,284.95863 h -0.726016 v -0.41487 h 1.990372 v 0.41487 h -0.706261 v 3.58563 H 79.87098 Z" />
      <path
         id="path915"
         style="line-height:5.5562501px;text-align:center;text-anchor:middle;stroke-width:0.26458332px"
         d="m 83.2742,288.58871 q -0.503767,0 -0.770467,-0.31115 -0.261761,-0.31115 -0.291394,-0.85442 l 0.493889,-0.13335 q 0.02469,0.38523 0.148166,0.6223 0.128411,0.23706 0.419806,0.23706 0.217311,0 0.325966,-0.11853 0.113595,-0.12347 0.113595,-0.35066 0,-0.24201 -0.103717,-0.40005 -0.103716,-0.16299 -0.330905,-0.37042 l -0.671689,-0.59267 q -0.202495,-0.18273 -0.296333,-0.38523 -0.0889,-0.20743 -0.0889,-0.49883 0,-0.4445 0.256822,-0.68156 0.256822,-0.24201 0.706261,-0.24201 0.469194,0 0.701322,0.25188 0.232128,0.25189 0.281517,0.78035 l -0.474134,0.12841 q -0.02469,-0.34078 -0.128411,-0.5334 -0.103716,-0.19756 -0.365477,-0.19756 -0.479073,0 -0.479073,0.43957 0,0.1778 0.05927,0.29633 0.05927,0.11359 0.202494,0.24694 l 0.676628,0.59267 q 0.261761,0.24201 0.414867,0.51364 0.158044,0.2667 0.158044,0.60749 0,0.43956 -0.2667,0.69638 -0.2667,0.25682 -0.691444,0.25682 z" />
      <path
         id="path917"
         style="line-height:5.5562501px;text-align:center;text-anchor:middle;stroke-width:0.26458332px"
         d="m 23.662191,290.10001 h 0.548217 v 4.0005 h -0.548217 z" />
      <path
         id="path919"
         style="line-height:5.5562501px;text-align:center;text-anchor:middle;stroke-width:0.26458332px"
         d="m 25.751624,290.10001 h 0.380294 l 1.135945,2.65713 v -2.65713 h 0.464255 v 4.0005 h -0.3556 l -1.150761,-2.7312 v 2.7312 h -0.474133 z" />
      <path
         id="path921"
         style="line-height:5.5562501px;text-align:center;text-anchor:middle;stroke-width:0.26458332px"
         d="m 29.663651,290.51488 h -0.726016 v -0.41487 h 1.990372 v 0.41487 h -0.706261 v 3.58563 h -0.558095 z" />
      <path
         id="path923"
         style="line-height:5.5562501px;text-align:center;text-anchor:middle;stroke-width:0.26458332px"
         d="m 33.145891,294.14496 q -0.587728,0 -0.84455,-0.3309 -0.251884,-0.33585 -0.251884,-0.96802 v -1.51624 q 0,-0.6223 0.256823,-0.94333 0.256822,-0.32103 0.839611,-0.32103 0.582789,0 0.834672,0.32597 0.256822,0.32103 0.256822,0.93839 v 1.52117 q 0,0.6223 -0.256822,0.95815 -0.256822,0.33584 -0.834672,0.33584 z m 0,-0.43956 q 0.31115,0 0.419805,-0.18274 0.108656,-0.18274 0.108656,-0.55315 v -1.75331 q 0,-0.36548 -0.108656,-0.53834 -0.108655,-0.1778 -0.419805,-0.1778 -0.316089,0 -0.424745,0.1778 -0.108655,0.17286 -0.108655,0.53834 v 1.75331 q 0,0.37041 0.108655,0.55315 0.108656,0.18274 0.424745,0.18274 z" />
      <path
         id="path925"
         style="line-height:5.5562501px;text-align:center;text-anchor:middle;stroke-width:0.26458332px"
         d="m 38.648544,294.14496 q -0.503767,0 -0.770467,-0.31115 -0.261761,-0.31115 -0.291394,-0.85442 l 0.493889,-0.13335 q 0.02469,0.38523 0.148166,0.6223 0.128412,0.23706 0.419806,0.23706 0.217311,0 0.325967,-0.11853 0.113594,-0.12347 0.113594,-0.35066 0,-0.24201 -0.103717,-0.40005 -0.103716,-0.16299 -0.330905,-0.37042 l -0.671689,-0.59267 q -0.202494,-0.18273 -0.296333,-0.38523 -0.0889,-0.20743 -0.0889,-0.49883 0,-0.4445 0.256822,-0.68156 0.256822,-0.24201 0.706261,-0.24201 0.469194,0 0.701322,0.25188 0.232128,0.25189 0.281517,0.78035 l -0.474133,0.12841 q -0.0247,-0.34078 -0.128412,-0.5334 -0.103716,-0.19756 -0.365477,-0.19756 -0.479073,0 -0.479073,0.43957 0,0.1778 0.05927,0.29633 0.05927,0.11359 0.202495,0.24694 l 0.676627,0.59267 q 0.261761,0.24201 0.414867,0.51364 0.158044,0.2667 0.158044,0.60749 0,0.43956 -0.2667,0.69638 -0.2667,0.25682 -0.691444,0.25682 z" />
      <path
         id="path927"
         style="line-height:5.5562501px;text-align:center;text-anchor:middle;stroke-width:0.26458332px"
         d="m 41.345491,290.51488 h -0.726017 v -0.41487 h 1.990372 v 0.41487 h -0.706261 v 3.58563 h -0.558094 z" />
      <path
         id="path929"
         style="line-height:5.5562501px;text-align:center;text-anchor:middle;stroke-width:0.26458332px"
         d="m 43.805381,290.10001 h 0.805039 q 0.607483,0 0.888999,0.25189 0.286456,0.24694 0.286456,0.80997 0,0.77047 -0.493889,0.93345 l 0.567972,2.00519 h -0.538339 l -0.523522,-1.87677 h -0.434622 v 1.87677 h -0.558094 z m 0.770466,1.72368 q 0.360539,0 0.513645,-0.14323 0.158044,-0.14323 0.158044,-0.51859 0,-0.24694 -0.05433,-0.38523 -0.05433,-0.14323 -0.192616,-0.20743 -0.138289,-0.0691 -0.390172,-0.0691 h -0.246945 v 1.32363 z" />
      <path
         id="path931"
         style="line-height:5.5562501px;text-align:center;text-anchor:middle;stroke-width:0.26458332px"
         d="m 48.295244,294.14496 q -0.419805,0 -0.656872,-0.16792 -0.232128,-0.16792 -0.321028,-0.46919 -0.0889,-0.30128 -0.0889,-0.75565 v -2.65219 h 0.5334 v 2.67688 q 0,0.45438 0.103717,0.69145 0.108656,0.23706 0.429683,0.23706 0.321028,0 0.424745,-0.23706 0.108655,-0.23707 0.108655,-0.69145 v -2.67688 h 0.528461 v 2.65219 q 0,0.45437 -0.0889,0.75565 -0.0889,0.30127 -0.321027,0.46919 -0.232128,0.16792 -0.651934,0.16792 z" />
      <path
         id="path933"
         style="line-height:5.5562501px;text-align:center;text-anchor:middle;stroke-width:0.26458332px"
         d="m 51.841716,294.14496 q -0.592667,0 -0.834672,-0.35066 -0.242006,-0.3556 -0.242006,-0.9779 v -1.41252 q 0,-0.65687 0.237067,-0.99766 0.237067,-0.34078 0.839611,-0.34078 0.538339,0 0.770467,0.2914 0.237066,0.29139 0.237066,0.85936 v 0.31609 h -0.528461 v -0.28152 q 0,-0.27657 -0.02469,-0.42474 -0.02469,-0.14817 -0.128411,-0.23707 -0.09878,-0.0889 -0.321028,-0.0889 -0.227189,0 -0.340783,0.0988 -0.108656,0.0938 -0.143228,0.2667 -0.03457,0.16792 -0.03457,0.45438 v 1.58538 q 0,0.30621 0.04939,0.47907 0.04939,0.17287 0.158044,0.24695 0.113594,0.0741 0.31115,0.0741 0.212372,0 0.316089,-0.0938 0.103717,-0.0938 0.128411,-0.25682 0.02963,-0.16298 0.02963,-0.4445 v -0.29633 h 0.528461 v 0.29633 q 0,0.59761 -0.227189,0.91863 -0.22225,0.31609 -0.780344,0.31609 z" />
      <path
         id="path935"
         style="line-height:5.5562501px;text-align:center;text-anchor:middle;stroke-width:0.26458332px"
         d="m 54.68694,290.51488 h -0.726016 v -0.41487 h 1.990372 v 0.41487 h -0.706261 v 3.58563 H 54.68694 Z" />
      <path
         id="path937"
         style="line-height:5.5562501px;text-align:center;text-anchor:middle;stroke-width:0.26458332px"
         d="m 58.179056,294.14496 q -0.419805,0 -0.656872,-0.16792 -0.232128,-0.16792 -0.321028,-0.46919 -0.0889,-0.30128 -0.0889,-0.75565 v -2.65219 h 0.5334 v 2.67688 q 0,0.45438 0.103717,0.69145 0.108655,0.23706 0.429683,0.23706 0.321028,0 0.424745,-0.23706 0.108655,-0.23707 0.108655,-0.69145 v -2.67688 h 0.528461 v 2.65219 q 0,0.45437 -0.0889,0.75565 -0.0889,0.30127 -0.321027,0.46919 -0.232128,0.16792 -0.651934,0.16792 z" />
      <path
         id="path939"
         style="line-height:5.5562501px;text-align:center;text-anchor:middle;stroke-width:0.26458332px"
         d="m 60.722936,290.10001 h 0.805038 q 0.607484,0 0.889,0.25189 0.286456,0.24694 0.286456,0.80997 0,0.77047 -0.493889,0.93345 l 0.567972,2.00519 h -0.538339 l -0.523522,-1.87677 H 61.28103 v 1.87677 h -0.558094 z m 0.770466,1.72368 q 0.360539,0 0.513645,-0.14323 0.158044,-0.14323 0.158044,-0.51859 0,-0.24694 -0.05433,-0.38523 -0.05433,-0.14323 -0.192616,-0.20743 -0.138289,-0.0691 -0.390173,-0.0691 H 61.28103 v 1.32363 z" />
      <path
         id="path941"
         style="line-height:5.5562501px;text-align:center;text-anchor:middle;stroke-width:0.26458332px"
         d="m 64.18057,290.10001 h 1.550811 v 0.41487 h -0.992717 v 1.32362 h 0.805039 v 0.39511 h -0.805039 v 1.46685 h 1.002594 v 0.40005 H 64.18057 Z" />
      <path
         id="path943"
         style="line-height:5.5562501px;text-align:center;text-anchor:middle;stroke-width:0.26458332px"
         d="m 68.028381,294.14496 q -0.503767,0 -0.770467,-0.31115 -0.261761,-0.31115 -0.291394,-0.85442 l 0.493889,-0.13335 q 0.02469,0.38523 0.148167,0.6223 0.128411,0.23706 0.419805,0.23706 0.217311,0 0.325967,-0.11853 0.113594,-0.12347 0.113594,-0.35066 0,-0.24201 -0.103717,-0.40005 -0.103716,-0.16299 -0.330905,-0.37042 l -0.671689,-0.59267 q -0.202494,-0.18273 -0.296333,-0.38523 -0.0889,-0.20743 -0.0889,-0.49883 0,-0.4445 0.256822,-0.68156 0.256822,-0.24201 0.706261,-0.24201 0.469194,0 0.701322,0.25188 0.232128,0.25189 0.281517,0.78035 l -0.474133,0.12841 q -0.0247,-0.34078 -0.128412,-0.5334 -0.103716,-0.19756 -0.365477,-0.19756 -0.479072,0 -0.479072,0.43957 0,0.1778 0.05927,0.29633 0.05927,0.11359 0.202495,0.24694 l 0.676627,0.59267 q 0.261761,0.24201 0.414867,0.51364 0.158044,0.2667 0.158044,0.60749 0,0.43956 -0.2667,0.69638 -0.2667,0.25682 -0.691444,0.25682 z" />
    </g>
  </g>
</svg>
