<?xml version="1.0" encoding="UTF-8" standalone="no"?>
<svg
   xmlns:dc="http://purl.org/dc/elements/1.1/"
   xmlns:cc="http://creativecommons.org/ns#"
   xmlns:rdf="http://www.w3.org/1999/02/22-rdf-syntax-ns#"
   xmlns:svg="http://www.w3.org/2000/svg"
   xmlns="http://www.w3.org/2000/svg"
   xmlns:sodipodi="http://sodipodi.sourceforge.net/DTD/sodipodi-0.dtd"
   xmlns:inkscape="http://www.inkscape.org/namespaces/inkscape"
   id="svg963"
   version="1.1"
   viewBox="0 0 64 40"
   sodipodi:docname="w-social.svg"
   inkscape:version="0.92.4 (5da689c313, 2019-01-14)">
  <sodipodi:namedview
     pagecolor="#ffffff"
     bordercolor="#666666"
     borderopacity="1"
     objecttolerance="10"
     gridtolerance="10"
     guidetolerance="10"
     inkscape:pageopacity="0"
     inkscape:pageshadow="2"
     inkscape:window-width="1920"
     inkscape:window-height="1051"
     id="namedview825"
     showgrid="false"
     inkscape:zoom="9.5703125"
     inkscape:cx="37.156556"
     inkscape:cy="15.224332"
     inkscape:window-x="0"
     inkscape:window-y="0"
     inkscape:window-maximized="1"
     inkscape:current-layer="svg963"
     inkscape:snap-object-midpoints="true">
    <inkscape:grid
       type="xygrid"
       id="grid860"
       empspacing="4" />
  </sodipodi:namedview>
  <defs
     id="defs957" />
  <metadata
     id="metadata960">
    <rdf:RDF>
      <cc:Work
         rdf:about="">
        <dc:format>image/svg+xml</dc:format>
        <dc:type
           rdf:resource="http://purl.org/dc/dcmitype/StillImage" />
        <dc:title></dc:title>
      </cc:Work>
    </rdf:RDF>
  </metadata>
  <rect
     style="opacity:1;fill:#b3b3b3;fill-opacity:1;stroke:none;stroke-width:1;stroke-linecap:round;stroke-linejoin:miter;stroke-miterlimit:4;stroke-dasharray:none;stroke-dashoffset:0;stroke-opacity:1;paint-order:markers stroke fill"
     id="rect837"
     width="64"
     height="40"
     x="0"
     y="0" />
  <rect
     y="8"
     x="2"
     height="30"
     width="60"
     id="rect871"
     style="opacity:1;fill:#f2f2f2;fill-opacity:1;stroke:none;stroke-width:2.08012581;stroke-linecap:round;stroke-linejoin:miter;stroke-miterlimit:4;stroke-dasharray:none;stroke-dashoffset:0;stroke-opacity:1;paint-order:markers stroke fill" />
  <rect
     style="opacity:1;fill:#f2f2f2;fill-opacity:1;stroke:none;stroke-width:0.75955462;stroke-linecap:round;stroke-linejoin:miter;stroke-miterlimit:4;stroke-dasharray:none;stroke-dashoffset:0;stroke-opacity:1;paint-order:markers stroke fill"
     id="rect873"
     width="60"
     height="4"
     x="2"
     y="2" />
  <circle
     r="1"
     cy="4"
     cx="4"
     id="path875"
     style="opacity:1;fill:#b3b3b3;fill-opacity:1;stroke:none;stroke-width:4;stroke-linecap:round;stroke-linejoin:bevel;stroke-miterlimit:4;stroke-dasharray:none;stroke-dashoffset:0;stroke-opacity:1;paint-order:markers stroke fill" />
  <circle
     style="opacity:1;fill:#b3b3b3;fill-opacity:1;stroke:none;stroke-width:4;stroke-linecap:round;stroke-linejoin:bevel;stroke-miterlimit:4;stroke-dasharray:none;stroke-dashoffset:0;stroke-opacity:1;paint-order:markers stroke fill"
     id="circle877"
     cx="7"
     cy="4"
     r="1" />
  <circle
     r="1"
     cy="4"
     cx="10"
     id="circle881"
     style="opacity:1;fill:#b3b3b3;fill-opacity:1;stroke:none;stroke-width:4;stroke-linecap:round;stroke-linejoin:bevel;stroke-miterlimit:4;stroke-dasharray:none;stroke-dashoffset:0;stroke-opacity:1;paint-order:markers stroke fill" />
  <path
     id="path1602"
     d="m 25.142965,20.766962 h -3.082652 c -0.510756,0 -0.924795,0.414039 -0.924795,0.924796 v 9.247957 c 0,0.510757 0.414039,0.924796 0.924795,0.924796 h 3.082652 c 0.510757,0 0.924797,-0.414039 0.924797,-0.924796 v -9.247957 c 0,-0.510757 -0.41404,-0.924796 -0.924797,-0.924796 z m -1.541325,9.556222 c -0.510758,0 -0.924795,-0.414037 -0.924795,-0.924794 0,-0.510758 0.414037,-0.924797 0.924795,-0.924797 0.510758,0 0.924797,0.414039 0.924797,0.924797 0,0.510757 -0.414039,0.924794 -0.924797,0.924794 z M 35.932251,15.274137 c 0,1.634424 -1.000706,2.551204 -1.282269,3.643233 h 3.919709 c 1.286892,0 2.288753,1.069142 2.294764,2.2387 0.0033,0.691207 -0.290771,1.435321 -0.749046,1.895715 l -0.0042,0.0042 c 0.379014,0.899247 0.317399,2.159281 -0.358665,3.06219 0.334507,0.997816 -0.0027,2.223518 -0.631251,2.880623 0.165615,0.678107 0.08647,1.255218 -0.236902,1.719812 -0.786462,1.129948 -2.7357,1.145861 -4.384033,1.145861 l -0.109626,-3.8e-5 c -1.860652,-5.96e-4 -3.383444,-0.678107 -4.607024,-1.222465 -0.614874,-0.273547 -1.418831,-0.612176 -2.028811,-0.62339 -0.252006,-0.0046 -0.454036,-0.210275 -0.454036,-0.462319 v -8.23724 c 0,-0.123306 0.0494,-0.241642 0.1371,-0.328341 1.526453,-1.508342 2.182828,-3.105271 3.433961,-4.358524 0.570445,-0.571524 0.777908,-1.434821 0.978471,-2.26968 0.171358,-0.712902 0.529793,-2.226985 1.307508,-2.226985 0.924795,0 2.774389,0.308265 2.774389,3.138602 z"
     inkscape:connector-curvature="0"
     style="fill:#b3b3b3;stroke-width:0.03853316;fill-opacity:1" />
</svg>
